<svg xmlns="http://www.w3.org/2000/svg" width="200" height="200" viewBox="0 0 200 200">
  <!-- Background circle -->
  <circle cx="100" cy="100" r="90" fill="#F5F5F5"/>
  
  <!-- Chef hat -->
  <path d="M60,70 Q60,40 100,40 Q140,40 140,70 Q140,85 130,90 L130,100 L70,100 L70,90 Q60,85 60,70" fill="#FFFFFF" stroke="#8B0000" stroke-width="2"/>
  
  <!-- Hat details -->
  <path d="M70,90 Q85,80 100,90 Q115,80 130,90" fill="none" stroke="#8B0000" stroke-width="1" opacity="0.5"/>
  <path d="M100,40 L100,60" fill="none" stroke="#8B0000" stroke-width="1" opacity="0.5"/>
  
  <!-- Face -->
  <circle cx="100" cy="120" r="30" fill="#FFE4C4" stroke="#8B4513" stroke-width="1"/>
  
  <!-- Eyes -->
  <ellipse cx="90" cy="115" rx="3" ry="4" fill="#8B4513"/>
  <ellipse cx="110" cy="115" rx="3" ry="4" fill="#8B4513"/>
  
  <!-- Eyebrows -->
  <path d="M85,108 Q90,105 95,108" fill="none" stroke="#8B4513" stroke-width="1"/>
  <path d="M105,108 Q110,105 115,108" fill="none" stroke="#8B4513" stroke-width="1"/>
  
  <!-- Smile -->
  <path d="M90,130 Q100,140 110,130" fill="none" stroke="#8B4513" stroke-width="2"/>
  
  <!-- Mustache -->
  <path d="M85,125 Q100,130 115,125" fill="none" stroke="#8B4513" stroke-width="2"/>
  
  <!-- Chef uniform collar -->
  <path d="M70,150 L70,100 L130,100 L130,150" fill="#FFFFFF" stroke="#8B0000" stroke-width="2"/>
  
  <!-- Uniform buttons -->
  <circle cx="100" cy="110" r="3" fill="#8B0000"/>
  <circle cx="100" cy="125" r="3" fill="#8B0000"/>
  <circle cx="100" cy="140" r="3" fill="#8B0000"/>
  
  <!-- Uniform details -->
  <path d="M85,100 L85,150" fill="none" stroke="#8B0000" stroke-width="1" opacity="0.5"/>
  <path d="M115,100 L115,150" fill="none" stroke="#8B0000" stroke-width="1" opacity="0.5"/>
  
  <!-- Spoon and fork -->
  <g transform="translate(140,120) rotate(45)">
    <rect x="-5" y="-20" width="10" height="40" rx="5" ry="5" fill="#C0C0C0" stroke="#808080" stroke-width="1"/>
    <rect x="-2" y="-30" width="4" height="15" rx="2" ry="2" fill="#C0C0C0" stroke="#808080" stroke-width="1"/>
  </g>
  
  <g transform="translate(60,120) rotate(-45)">
    <rect x="-5" y="-20" width="10" height="40" rx="5" ry="5" fill="#C0C0C0" stroke="#808080" stroke-width="1"/>
    <path d="M0,-30 L-5,-20 L0,-15 L5,-20 Z" fill="#C0C0C0" stroke="#808080" stroke-width="1"/>
  </g>
  
  <!-- Indian spice decoration -->
  <g fill="#DAA520" opacity="0.7">
    <circle cx="50" cy="50" r="5"/>
    <circle cx="150" cy="50" r="5"/>
    <circle cx="50" cy="150" r="5"/>
    <circle cx="150" cy="150" r="5"/>
  </g>
  
  <!-- Decorative border -->
  <circle cx="100" cy="100" r="90" fill="none" stroke="#8B0000" stroke-width="3" opacity="0.7"/>
  <circle cx="100" cy="100" r="85" fill="none" stroke="#DAA520" stroke-width="1" opacity="0.5"/>
</svg>