<svg xmlns="http://www.w3.org/2000/svg" width="50" height="50" viewBox="0 0 50 50">
  <!-- Background Circle -->
  <circle cx="25" cy="25" r="24" fill="#FFFFFF" stroke="#8B0000" stroke-width="1"/>
  
  <!-- Clock Face -->
  <g transform="translate(25, 25)">
    <!-- Clock Outer Ring -->
    <circle cx="0" cy="0" r="15" fill="#FFFFFF" stroke="#8B0000" stroke-width="2"/>
    
    <!-- Hour Markers -->
    <line x1="0" y1="-13" x2="0" y2="-15" stroke="#8B0000" stroke-width="1.5"/>
    <line x1="6.5" y1="-11.3" x2="7.5" y2="-13" stroke="#8B0000" stroke-width="1.5"/>
    <line x1="11.3" y1="-6.5" x2="13" y2="-7.5" stroke="#8B0000" stroke-width="1.5"/>
    <line x1="13" y1="0" x2="15" y2="0" stroke="#8B0000" stroke-width="1.5"/>
    <line x1="11.3" y1="6.5" x2="13" y2="7.5" stroke="#8B0000" stroke-width="1.5"/>
    <line x1="6.5" y1="11.3" x2="7.5" y2="13" stroke="#8B0000" stroke-width="1.5"/>
    <line x1="0" y1="13" x2="0" y2="15" stroke="#8B0000" stroke-width="1.5"/>
    <line x1="-6.5" y1="11.3" x2="-7.5" y2="13" stroke="#8B0000" stroke-width="1.5"/>
    <line x1="-11.3" y1="6.5" x2="-13" y2="7.5" stroke="#8B0000" stroke-width="1.5"/>
    <line x1="-13" y1="0" x2="-15" y2="0" stroke="#8B0000" stroke-width="1.5"/>
    <line x1="-11.3" y1="-6.5" x2="-13" y2="-7.5" stroke="#8B0000" stroke-width="1.5"/>
    <line x1="-6.5" y1="-11.3" x2="-7.5" y2="-13" stroke="#8B0000" stroke-width="1.5"/>
    
    <!-- Clock Hands -->
    <line x1="0" y1="0" x2="0" y2="-8" stroke="#8B0000" stroke-width="2" stroke-linecap="round">
      <animateTransform attributeName="transform" type="rotate" from="0" to="360" dur="12s" repeatCount="indefinite"/>
    </line>
    <line x1="0" y1="0" x2="6" y2="0" stroke="#8B0000" stroke-width="2" stroke-linecap="round">
      <animateTransform attributeName="transform" type="rotate" from="0" to="360" dur="60s" repeatCount="indefinite"/>
    </line>
    
    <!-- Center Pin -->
    <circle cx="0" cy="0" r="1.5" fill="#DAA520"/>
  </g>
  
  <!-- Decorative Elements -->
  <g>
    <!-- Gold Accent Border -->
    <circle cx="25" cy="25" r="24" fill="none" stroke="#DAA520" stroke-width="0.5" opacity="0.5"/>
    
    <!-- Corner Accents -->
    <circle cx="10" cy="10" r="1.5" fill="#DAA520" opacity="0.7"/>
    <circle cx="40" cy="10" r="1.5" fill="#DAA520" opacity="0.7"/>
    <circle cx="10" cy="40" r="1.5" fill="#DAA520" opacity="0.7"/>
    <circle cx="40" cy="40" r="1.5" fill="#DAA520" opacity="0.7"/>
    
    <!-- Spice Leaf Mini Decoration -->
    <g transform="translate(25, 8) scale(0.15)">
      <path d="M0,-20 Q10,-15 10,0 Q10,15 0,20 Q-10,15 -10,0 Q-10,-15 0,-20" fill="#006400" opacity="0.5"/>
      <path d="M0,-20 L0,20" stroke="#DAA520" stroke-width="2" opacity="0.5"/>
      <path d="M-8,-8 L8,8" stroke="#DAA520" stroke-width="2" opacity="0.5"/>
      <path d="M8,-8 L-8,8" stroke="#DAA520" stroke-width="2" opacity="0.5"/>
    </g>
  </g>
</svg>