<svg xmlns="http://www.w3.org/2000/svg" width="50" height="50" viewBox="0 0 50 50">
  <!-- Background Circle -->
  <circle cx="25" cy="25" r="24" fill="#FFFFFF" stroke="#8B0000" stroke-width="1"/>
  
  <!-- X Symbol -->
  <g transform="translate(25, 25)">
    <!-- X Lines -->
    <line x1="-12" y1="-12" x2="12" y2="12" stroke="#8B0000" stroke-width="3" stroke-linecap="round">
      <animate attributeName="stroke-width" values="3;4;3" dur="2s" repeatCount="indefinite"/>
    </line>
    <line x1="12" y1="-12" x2="-12" y2="12" stroke="#8B0000" stroke-width="3" stroke-linecap="round">
      <animate attributeName="stroke-width" values="3;4;3" dur="2s" repeatCount="indefinite" begin="1s"/>
    </line>
    
    <!-- Center Accent -->
    <circle cx="0" cy="0" r="2" fill="#DAA520"/>
  </g>
  
  <!-- Decorative Elements -->
  <g>
    <!-- Gold Accent Border -->
    <circle cx="25" cy="25" r="24" fill="none" stroke="#DAA520" stroke-width="0.5" opacity="0.5"/>
    
    <!-- Corner Accents -->
    <circle cx="10" cy="10" r="1.5" fill="#DAA520" opacity="0.7"/>
    <circle cx="40" cy="10" r="1.5" fill="#DAA520" opacity="0.7"/>
    <circle cx="10" cy="40" r="1.5" fill="#DAA520" opacity="0.7"/>
    <circle cx="40" cy="40" r="1.5" fill="#DAA520" opacity="0.7"/>
    
    <!-- Spice Leaf Mini Decoration -->
    <g transform="translate(25, 8) scale(0.15)">
      <path d="M0,-20 Q10,-15 10,0 Q10,15 0,20 Q-10,15 -10,0 Q-10,-15 0,-20" fill="#006400" opacity="0.5"/>
      <path d="M0,-20 L0,20" stroke="#DAA520" stroke-width="2" opacity="0.5"/>
      <path d="M-8,-8 L8,8" stroke="#DAA520" stroke-width="2" opacity="0.5"/>
      <path d="M8,-8 L-8,8" stroke="#DAA520" stroke-width="2" opacity="0.5"/>
    </g>
  </g>
</svg>