<svg xmlns="http://www.w3.org/2000/svg" width="100" height="100" viewBox="0 0 100 100">
  <!-- Background Circle -->
  <circle cx="50" cy="50" r="48" fill="#F5F5F5" stroke="#8B0000" stroke-width="2"/>
  
  <!-- Person Silhouette (different from customer1 and customer2) -->
  <circle cx="50" cy="35" r="19" fill="#DAA520"/>
  <path d="M50 58 C32 58 20 75 20 95 L80 95 C80 75 68 58 50 58Z" fill="#DAA520"/>
  
  <!-- Facial Features Hint -->
  <path d="M42 35 L45 35 M55 35 L58 35 M50 40 C47 45 53 45 50 40" stroke="#8B0000" stroke-width="1.5" fill="none"/>
  
  <!-- Decorative Elements -->
  <path d="M5,5 L15,15 M5,95 L15,85 M95,5 L85,15 M95,95 L85,85" stroke="#DAA520" stroke-width="2"/>
  
  <!-- Spice Leaf Motif -->
  <path d="M50,15 C60,5 60,25 50,15 M47,18 C52,13 52,23 47,18" fill="none" stroke="#006400" stroke-width="1"/>
</svg>