<svg xmlns="http://www.w3.org/2000/svg" width="100" height="100" viewBox="0 0 100 100">
  <!-- Background Circle -->
  <circle cx="50" cy="50" r="48" fill="#F5F5F5" stroke="#8B0000" stroke-width="2"/>
  
  <!-- Person Silhouette (slightly different from customer1) -->
  <circle cx="50" cy="38" r="18" fill="#DAA520"/>
  <path d="M50 60 C35 60 25 80 25 95 L75 95 C75 80 65 60 50 60Z" fill="#DAA520"/>
  
  <!-- Hair -->
  <path d="M35 30 C35 20 65 20 65 30" stroke="#8B0000" stroke-width="4" fill="none"/>
  
  <!-- Decorative Elements -->
  <path d="M5,5 L15,15 M5,95 L15,85 M95,5 L85,15 M95,95 L85,85" stroke="#DAA520" stroke-width="2"/>
  
  <!-- Spice Leaf Motif -->
  <path d="M25,25 C15,15 15,35 25,25 M28,28 C23,23 23,33 28,28" fill="none" stroke="#006400" stroke-width="1"/>
</svg>