<svg xmlns="http://www.w3.org/2000/svg" width="200" height="200" viewBox="0 0 200 200">
  <!-- Background circle -->
  <circle cx="100" cy="100" r="90" fill="#F5F5F5"/>
  
  <!-- Delivery scooter -->
  <g transform="translate(100, 100) scale(0.8)">
    <!-- Scooter body -->
    <path d="M-60,20 L-20,20 L-10,0 L40,0 L50,20 L70,20 Q80,20 80,30 L80,40 Q80,50 70,50 L50,50 Q40,50 40,40 L40,30 Q40,20 30,20 L-40,20 Q-50,20 -50,30 L-50,40 Q-50,50 -60,50 L-80,50 Q-90,50 -90,40 L-90,30 Q-90,20 -80,20 Z" fill="#8B0000" stroke="#000000" stroke-width="2"/>
    
    <!-- Wheels -->
    <circle cx="-70" cy="50" r="15" fill="#000000" stroke="#333333" stroke-width="2"/>
    <circle cx="-70" cy="50" r="5" fill="#333333"/>
    <circle cx="60" cy="50" r="15" fill="#000000" stroke="#333333" stroke-width="2"/>
    <circle cx="60" cy="50" r="5" fill="#333333"/>
    
    <!-- Handlebars -->
    <path d="M-20,0 L-20,-20 L0,-20 L0,0" fill="#333333" stroke="#000000" stroke-width="2"/>
    <line x1="-20" y1="-20" x2="-40" y2="-10" stroke="#000000" stroke-width="3" stroke-linecap="round"/>
    <line x1="0" y1="-20" x2="20" y2="-10" stroke="#000000" stroke-width="3" stroke-linecap="round"/>
    
    <!-- Headlight -->
    <circle cx="40" cy="10" r="5" fill="#FFFF00" stroke="#000000" stroke-width="1"/>
    
    <!-- Food delivery box -->
    <rect x="10" y="-40" width="30" height="30" rx="2" ry="2" fill="#DAA520" stroke="#8B0000" stroke-width="2"/>
    <rect x="15" y="-35" width="20" height="5" fill="#8B0000"/>
    <rect x="15" y="-25" width="20" height="5" fill="#8B0000"/>
    <rect x="15" y="-15" width="20" height="5" fill="#8B0000"/>
  </g>
  
  <!-- Speed lines -->
  <g stroke="#8B0000" stroke-width="2" stroke-linecap="round" opacity="0.7">
    <line x1="30" y1="80" x2="10" y2="80" stroke-dasharray="10,5"/>
    <line x1="25" y1="100" x2="5" y2="100" stroke-dasharray="10,5"/>
    <line x1="30" y1="120" x2="10" y2="120" stroke-dasharray="10,5"/>
  </g>
  
  <!-- Clock icon for fast delivery -->
  <circle cx="150" cy="50" r="20" fill="#FFFFFF" stroke="#8B0000" stroke-width="2"/>
  <line x1="150" y1="50" x2="150" y2="35" stroke="#8B0000" stroke-width="2" stroke-linecap="round"/>
  <line x1="150" y1="50" x2="160" y2="55" stroke="#8B0000" stroke-width="2" stroke-linecap="round"/>
  
  <!-- Food steam -->
  <g fill="none" stroke="#8B0000" stroke-width="1" opacity="0.7">
    <path d="M140,80 Q145,70 150,80 T160,80" stroke-dasharray="2,2"/>
    <path d="M145,70 Q150,60 155,70 T165,70" stroke-dasharray="2,2"/>
  </g>
  
  <!-- Indian spice decoration -->
  <g fill="#DAA520" opacity="0.5">
    <circle cx="40" cy="40" r="3"/>
    <circle cx="50" cy="50" r="3"/>
    <circle cx="60" cy="40" r="3"/>
    
    <circle cx="140" cy="140" r="3"/>
    <circle cx="150" cy="150" r="3"/>
    <circle cx="160" cy="140" r="3"/>
  </g>
  
  <!-- Decorative border -->
  <circle cx="100" cy="100" r="90" fill="none" stroke="#8B0000" stroke-width="3" opacity="0.7"/>
  <circle cx="100" cy="100" r="85" fill="none" stroke="#DAA520" stroke-width="1" opacity="0.5"/>
</svg>