<svg xmlns="http://www.w3.org/2000/svg" width="50" height="50" viewBox="0 0 50 50">
  <!-- Background Circle -->
  <circle cx="25" cy="25" r="24" fill="#FFFFFF" stroke="#8B0000" stroke-width="1"/>
  
  <!-- Email Icon -->
  <g transform="translate(25, 25)">
    <!-- Envelope Body -->
    <rect x="-15" y="-10" width="30" height="20" rx="2" ry="2" fill="#FFFFFF" stroke="#8B0000" stroke-width="1.5"/>
    
    <!-- Envelope Flap -->
    <path d="M-15,-10 L0,0 L15,-10" fill="none" stroke="#8B0000" stroke-width="1.5"/>
    
    <!-- Envelope Content Lines -->
    <line x1="-10" y1="-2" x2="10" y2="-2" stroke="#8B0000" stroke-width="1" opacity="0.7"/>
    <line x1="-10" y1="1" x2="8" y2="1" stroke="#8B0000" stroke-width="1" opacity="0.7"/>
    <line x1="-10" y1="4" x2="5" y2="4" stroke="#8B0000" stroke-width="1" opacity="0.7"/>
    
    <!-- @ Symbol -->
    <g transform="translate(8, 2) scale(0.8)">
      <circle cx="0" cy="0" r="5" fill="none" stroke="#8B0000" stroke-width="1.2"/>
      <path d="M0,-5 C-3,-5 -5,-3 -5,0 C-5,3 -3,5 0,5 C3,5 5,3 5,0 L5,2 C5,4 3,5 0,5" fill="none" stroke="#8B0000" stroke-width="1.2"/>
    </g>
  </g>
  
  <!-- Decorative Elements -->
  <g>
    <!-- Gold Accent Border -->
    <circle cx="25" cy="25" r="24" fill="none" stroke="#DAA520" stroke-width="0.5" opacity="0.5"/>
    
    <!-- Corner Accents -->
    <circle cx="10" cy="10" r="1.5" fill="#DAA520" opacity="0.7"/>
    <circle cx="40" cy="10" r="1.5" fill="#DAA520" opacity="0.7"/>
    <circle cx="10" cy="40" r="1.5" fill="#DAA520" opacity="0.7"/>
    <circle cx="40" cy="40" r="1.5" fill="#DAA520" opacity="0.7"/>
    
    <!-- Spice Leaf Mini Decoration -->
    <g transform="translate(25, 8) scale(0.15)">
      <path d="M0,-20 Q10,-15 10,0 Q10,15 0,20 Q-10,15 -10,0 Q-10,-15 0,-20" fill="#006400" opacity="0.5"/>
      <path d="M0,-20 L0,20" stroke="#DAA520" stroke-width="2" opacity="0.5"/>
      <path d="M-8,-8 L8,8" stroke="#DAA520" stroke-width="2" opacity="0.5"/>
      <path d="M8,-8 L-8,8" stroke="#DAA520" stroke-width="2" opacity="0.5"/>
    </g>
  </g>
  
  <!-- Animation -->
  <g transform="translate(25, 25)">
    <path d="M-15,-10 L0,0 L15,-10" fill="none" stroke="#8B0000" stroke-width="0" opacity="0">
      <animate attributeName="stroke-width" values="0;1.5;0" dur="3s" repeatCount="indefinite" begin="1s"/>
      <animate attributeName="opacity" values="0;1;0" dur="3s" repeatCount="indefinite" begin="1s"/>
    </path>
    <path d="M-15,10 L0,0 L15,10" fill="none" stroke="#8B0000" stroke-width="0" opacity="0">
      <animate attributeName="stroke-width" values="0;1.5;0" dur="3s" repeatCount="indefinite" begin="2s"/>
      <animate attributeName="opacity" values="0;1;0" dur="3s" repeatCount="indefinite" begin="2s"/>
    </path>
  </g>
</svg>