<svg xmlns="http://www.w3.org/2000/svg" width="80" height="80" viewBox="0 0 80 80">
  <!-- Background Circle with Animation -->
  <circle cx="40" cy="40" r="36" fill="#FFFFFF" stroke="#8B0000" stroke-width="2">
    <animate attributeName="r" values="36;38;36" dur="2s" repeatCount="indefinite"/>
  </circle>
  
  <!-- Error Symbol -->
  <g transform="translate(40, 40) scale(1.2)">
    <!-- Error Circle -->
    <circle cx="0" cy="0" r="20" fill="#8B0000" opacity="0.2"/>
    
    <!-- X Mark -->
    <line x1="-10" y1="-10" x2="10" y2="10" stroke="#8B0000" stroke-width="4" stroke-linecap="round">
      <animate attributeName="stroke-dasharray" values="0,100;100,0" dur="0.5s" fill="freeze"/>
    </line>
    <line x1="10" y1="-10" x2="-10" y2="10" stroke="#8B0000" stroke-width="4" stroke-linecap="round">
      <animate attributeName="stroke-dasharray" values="0,100;100,0" dur="0.5s" fill="freeze" begin="0.3s"/>
    </line>
  </g>
  
  <!-- Decorative Elements -->
  <g>
    <!-- Gold Accent Border -->
    <circle cx="40" cy="40" r="38" fill="none" stroke="#DAA520" stroke-width="1" opacity="0.5"/>
    
    <!-- Corner Accents -->
    <circle cx="15" cy="15" r="2" fill="#DAA520" opacity="0.7"/>
    <circle cx="65" cy="15" r="2" fill="#DAA520" opacity="0.7"/>
    <circle cx="15" cy="65" r="2" fill="#DAA520" opacity="0.7"/>
    <circle cx="65" cy="65" r="2" fill="#DAA520" opacity="0.7"/>
    
    <!-- Alert Symbols -->
    <g>
      <!-- Top Alert -->
      <path d="M40,10 L40,5 M40,3 L40,2" stroke="#8B0000" stroke-width="1" opacity="0.7">
        <animate attributeName="opacity" values="0.7;0.2;0.7" dur="2s" repeatCount="indefinite" begin="0s"/>
      </path>
      
      <!-- Right Alert -->
      <path d="M70,40 L75,40 M77,40 L78,40" stroke="#8B0000" stroke-width="1" opacity="0.7">
        <animate attributeName="opacity" values="0.7;0.2;0.7" dur="2s" repeatCount="indefinite" begin="0.5s"/>
      </path>
      
      <!-- Bottom Alert -->
      <path d="M40,70 L40,75 M40,77 L40,78" stroke="#8B0000" stroke-width="1" opacity="0.7">
        <animate attributeName="opacity" values="0.7;0.2;0.7" dur="2s" repeatCount="indefinite" begin="1s"/>
      </path>
      
      <!-- Left Alert -->
      <path d="M10,40 L5,40 M3,40 L2,40" stroke="#8B0000" stroke-width="1" opacity="0.7">
        <animate attributeName="opacity" values="0.7;0.2;0.7" dur="2s" repeatCount="indefinite" begin="1.5s"/>
      </path>
    </g>
    
    <!-- Spice Leaf Decoration -->
    <g transform="translate(40, 15) scale(0.2)">
      <path d="M0,-20 Q10,-15 10,0 Q10,15 0,20 Q-10,15 -10,0 Q-10,-15 0,-20" fill="#006400" opacity="0.5"/>
      <path d="M0,-20 L0,20" stroke="#DAA520" stroke-width="2" opacity="0.5"/>
      <path d="M-8,-8 L8,8" stroke="#DAA520" stroke-width="2" opacity="0.5"/>
      <path d="M8,-8 L-8,8" stroke="#DAA520" stroke-width="2" opacity="0.5"/>
    </g>
  </g>
</svg>