<svg xmlns="http://www.w3.org/2000/svg" width="64" height="64" viewBox="0 0 64 64">
  <!-- Background -->
  <circle cx="32" cy="32" r="30" fill="#8B0000"/>
  
  <!-- Leaf shape -->
  <path d="M32,10 Q45,15 45,32 Q45,45 32,50 Q19,45 19,32 Q19,15 32,10" fill="#006400" stroke="#DAA520" stroke-width="1"/>
  
  <!-- Spice sprinkles -->
  <g fill="#DAA520" opacity="0.8">
    <circle cx="28" cy="20" r="1.5"/>
    <circle cx="36" cy="20" r="1.5"/>
    <circle cx="32" cy="24" r="1.5"/>
    <circle cx="26" cy="28" r="1.5"/>
    <circle cx="38" cy="28" r="1.5"/>
    <circle cx="30" cy="32" r="1.5"/>
    <circle cx="34" cy="32" r="1.5"/>
    <circle cx="28" cy="36" r="1.5"/>
    <circle cx="36" cy="36" r="1.5"/>
    <circle cx="32" cy="40" r="1.5"/>
  </g>
  
  <!-- Leaf vein -->
  <path d="M32,10 L32,50" stroke="#DAA520" stroke-width="1" opacity="0.7"/>
  <path d="M25,20 L39,20" stroke="#DAA520" stroke-width="1" opacity="0.7"/>
  <path d="M22,32 L42,32" stroke="#DAA520" stroke-width="1" opacity="0.7"/>
  <path d="M25,44 L39,44" stroke="#DAA520" stroke-width="1" opacity="0.7"/>
  
  <!-- S letter (for SpiceLeaf) -->
  <path d="M32,20 Q36,20 36,24 Q36,28 32,28 Q28,28 28,32 Q28,36 32,36 Q36,36 36,40" fill="none" stroke="#FFFFFF" stroke-width="3" stroke-linecap="round" stroke-linejoin="round"/>
  
  <!-- Border -->
  <circle cx="32" cy="32" r="30" fill="none" stroke="#DAA520" stroke-width="2"/>
</svg>