<svg xmlns="http://www.w3.org/2000/svg" width="40" height="40" viewBox="0 0 40 40">
  <!-- Background Circle -->
  <circle cx="20" cy="20" r="19" fill="#FFFFFF" stroke="#8B4513" stroke-width="1"/>
  
  <!-- Wheat Symbol with Prohibition -->
  <g transform="translate(20, 18)">
    <!-- Wheat Stalks -->
    <g stroke="#8B4513" stroke-width="1.5" opacity="0.8">
      <!-- Center Stalk -->
      <line x1="0" y1="-10" x2="0" y2="8" />
      
      <!-- Left Stalks -->
      <path d="M0,-8 L-5,-10" />
      <path d="M0,-5 L-6,-8" />
      <path d="M0,-2 L-7,-6" />
      <path d="M0,1 L-6,-2" />
      <path d="M0,4 L-5,2" />
      
      <!-- Right Stalks -->
      <path d="M0,-8 L5,-10" />
      <path d="M0,-5 L6,-8" />
      <path d="M0,-2 L7,-6" />
      <path d="M0,1 L6,-2" />
      <path d="M0,4 L5,2" />
    </g>
    
    <!-- Prohibition Circle and Slash -->
    <circle cx="0" cy="0" r="12" fill="none" stroke="#FF0000" stroke-width="1.5"/>
    <line x1="-8.5" y1="-8.5" x2="8.5" y2="8.5" stroke="#FF0000" stroke-width="1.5"/>
  </g>
  
  <!-- "GLUTEN-FREE" Text -->
  <text x="20" y="32" font-family="Arial" font-size="5" font-weight="bold" fill="#8B4513" text-anchor="middle">GLUTEN-FREE</text>
  
  <!-- Decorative Elements -->
  <circle cx="20" cy="20" r="19" fill="none" stroke="#DAA520" stroke-width="0.5" opacity="0.5"/>
  
  <!-- Spice Sprinkles -->
  <circle cx="10" cy="10" r="1" fill="#DAA520" opacity="0.7"/>
  <circle cx="30" cy="10" r="1" fill="#DAA520" opacity="0.7"/>
  <circle cx="10" cy="30" r="1" fill="#DAA520" opacity="0.7"/>
  <circle cx="30" cy="30" r="1" fill="#DAA520" opacity="0.7"/>
</svg>