<svg xmlns="http://www.w3.org/2000/svg" width="1200" height="800" viewBox="0 0 1200 800">
  <!-- Background gradient -->
  <defs>
    <linearGradient id="bg-gradient" x1="0%" y1="0%" x2="100%" y2="100%">
      <stop offset="0%" stop-color="#8B0000" stop-opacity="0.8"/>
      <stop offset="100%" stop-color="#006400" stop-opacity="0.8"/>
    </linearGradient>
    <pattern id="food-pattern" patternUnits="userSpaceOnUse" width="300" height="300" patternTransform="rotate(45)">
      <g fill="#DAA520" opacity="0.1">
        <!-- Stylized food icons -->
        <!-- Dosa -->
        <path d="M50,150 C50,100 250,100 250,150 C250,200 50,200 50,150 Z"/>
        <!-- Thali -->
        <circle cx="150" cy="150" r="50"/>
        <circle cx="150" cy="150" r="40" fill="#8B0000" opacity="0.2"/>
        <!-- Spice -->
        <path d="M250,50 L260,70 L280,80 L260,90 L250,110 L240,90 L220,80 L240,70 Z"/>
      </g>
    </pattern>
  </defs>
  
  <!-- Main background -->
  <rect width="1200" height="800" fill="url(#bg-gradient)"/>
  
  <!-- Pattern overlay -->
  <rect width="1200" height="800" fill="url(#food-pattern)"/>
  
  <!-- Decorative elements -->
  <g opacity="0.3">
    <!-- Plate silhouettes -->
    <circle cx="200" cy="700" r="100" fill="#FFF" opacity="0.2"/>
    <circle cx="1000" cy="200" r="120" fill="#FFF" opacity="0.2"/>
    <circle cx="600" cy="400" r="150" fill="#FFF" opacity="0.1"/>
    
    <!-- Spice sprinkles -->
    <g fill="#DAA520">
      <circle cx="300" cy="300" r="5"/>
      <circle cx="320" cy="320" r="3"/>
      <circle cx="280" cy="320" r="4"/>
      <circle cx="900" cy="500" r="5"/>
      <circle cx="920" cy="520" r="3"/>
      <circle cx="880" cy="520" r="4"/>
      <circle cx="500" cy="700" r="5"/>
      <circle cx="520" cy="720" r="3"/>
      <circle cx="480" cy="720" r="4"/>
    </g>
  </g>
  
  <!-- Subtle vignette effect -->
  <radialGradient id="vignette" cx="50%" cy="50%" r="70%" fx="50%" fy="50%">
    <stop offset="0%" stop-color="transparent" stop-opacity="0"/>
    <stop offset="100%" stop-color="#000" stop-opacity="0.5"/>
  </radialGradient>
  <rect width="1200" height="800" fill="url(#vignette)"/>
</svg>