<svg xmlns="http://www.w3.org/2000/svg" width="80" height="80" viewBox="0 0 80 80">
  <!-- Background circle -->
  <circle cx="40" cy="40" r="36" fill="#FFFFFF" opacity="0.2"/>
  
  <!-- Spinner elements -->
  <g stroke="#8B0000" stroke-width="4" stroke-linecap="round">
    <line x1="40" y1="10" x2="40" y2="20" opacity="1.0">
      <animate attributeName="opacity" values="1;0.2" dur="1s" repeatCount="indefinite" begin="0s"/>
    </line>
    <line x1="57.32" y1="17.32" x2="50.32" y2="24.32" opacity="0.9">
      <animate attributeName="opacity" values="0.9;0.1" dur="1s" repeatCount="indefinite" begin="0.125s"/>
    </line>
    <line x1="65" y1="40" x2="55" y2="40" opacity="0.8">
      <animate attributeName="opacity" values="0.8;0.1" dur="1s" repeatCount="indefinite" begin="0.25s"/>
    </line>
    <line x1="57.32" y1="62.68" x2="50.32" y2="55.68" opacity="0.7">
      <animate attributeName="opacity" values="0.7;0.1" dur="1s" repeatCount="indefinite" begin="0.375s"/>
    </line>
    <line x1="40" y1="70" x2="40" y2="60" opacity="0.6">
      <animate attributeName="opacity" values="0.6;0.1" dur="1s" repeatCount="indefinite" begin="0.5s"/>
    </line>
    <line x1="22.68" y1="62.68" x2="29.68" y2="55.68" opacity="0.5">
      <animate attributeName="opacity" values="0.5;0.1" dur="1s" repeatCount="indefinite" begin="0.625s"/>
    </line>
    <line x1="15" y1="40" x2="25" y2="40" opacity="0.4">
      <animate attributeName="opacity" values="0.4;0.1" dur="1s" repeatCount="indefinite" begin="0.75s"/>
    </line>
    <line x1="22.68" y1="17.32" x2="29.68" y2="24.32" opacity="0.3">
      <animate attributeName="opacity" values="0.3;0.1" dur="1s" repeatCount="indefinite" begin="0.875s"/>
    </line>
  </g>
  
  <!-- Center spice leaf icon -->
  <g transform="translate(40, 40) scale(0.4)">
    <path d="M0,-30 Q20,-20 20,0 Q20,20 0,30 Q-20,20 -20,0 Q-20,-20 0,-30" fill="#006400" opacity="0.7"/>
    <path d="M0,-30 L0,30" stroke="#DAA520" stroke-width="1" opacity="0.7"/>
    <path d="M-15,-15 L15,15" stroke="#DAA520" stroke-width="1" opacity="0.7"/>
    <path d="M15,-15 L-15,15" stroke="#DAA520" stroke-width="1" opacity="0.7"/>
  </g>
  
  <!-- Gold accent -->
  <circle cx="40" cy="40" r="36" fill="none" stroke="#DAA520" stroke-width="1" opacity="0.5"/>
</svg>