<svg xmlns="http://www.w3.org/2000/svg" width="240" height="50" viewBox="0 0 240 50">
  <!-- Credit Card Icon -->
  <g transform="translate(30, 25)">
    <rect x="-20" y="-15" width="40" height="30" rx="3" ry="3" fill="#F5F5F5" stroke="#8B0000" stroke-width="1"/>
    <rect x="-17" y="-5" width="34" height="5" fill="#8B0000" opacity="0.7"/>
    <rect x="-10" y="5" width="20" height="3" rx="1" ry="1" fill="#8B0000" opacity="0.5"/>
    <rect x="-17" y="-12" width="10" height="5" rx="1" ry="1" fill="#DAA520" opacity="0.7"/>
  </g>
  
  <!-- UPI Icon -->
  <g transform="translate(90, 25)">
    <circle cx="0" cy="0" r="18" fill="#F5F5F5" stroke="#8B0000" stroke-width="1"/>
    <path d="M-10,-5 L0,10 L10,-5" fill="none" stroke="#8B0000" stroke-width="3" stroke-linejoin="round" stroke-linecap="round"/>
    <path d="M-5,-10 L5,-10" fill="none" stroke="#DAA520" stroke-width="3" stroke-linejoin="round" stroke-linecap="round"/>
  </g>
  
  <!-- Cash Icon -->
  <g transform="translate(150, 25)">
    <rect x="-15" y="-10" width="30" height="20" rx="2" ry="2" fill="#F5F5F5" stroke="#8B0000" stroke-width="1"/>
    <circle cx="0" cy="0" r="7" fill="#F5F5F5" stroke="#8B0000" stroke-width="1"/>
    <text x="0" y="3" font-family="Arial, sans-serif" font-size="10" text-anchor="middle" fill="#8B0000" font-weight="bold">₹</text>
    <rect x="-12" y="-7" width="7" height="2" fill="#DAA520" opacity="0.7"/>
    <rect x="-12" y="-3" width="5" height="2" fill="#DAA520" opacity="0.7"/>
    <rect x="-12" y="1" width="6" height="2" fill="#DAA520" opacity="0.7"/>
    <rect x="-12" y="5" width="4" height="2" fill="#DAA520" opacity="0.7"/>
  </g>
  
  <!-- Wallet Icon -->
  <g transform="translate(210, 25)">
    <path d="M-15,-10 L15,-10 L15,10 L-15,10 Z" fill="#F5F5F5" stroke="#8B0000" stroke-width="1"/>
    <path d="M-15,-5 L-20,-5 L-20,5 L-15,5 Z" fill="#F5F5F5" stroke="#8B0000" stroke-width="1"/>
    <rect x="5" y="-3" width="6" height="6" rx="2" ry="2" fill="#DAA520" opacity="0.7"/>
    <path d="M-10,0 L0,0" stroke="#8B0000" stroke-width="1" opacity="0.5"/>
    <path d="M-10,3 L-5,3" stroke="#8B0000" stroke-width="1" opacity="0.5"/>
  </g>
  
  <!-- Gold accents -->
  <g fill="none" stroke="#DAA520" stroke-width="1" opacity="0.5">
    <circle cx="30" cy="25" r="22"/>
    <circle cx="90" cy="25" r="22"/>
    <circle cx="150" cy="25" r="22"/>
    <circle cx="210" cy="25" r="22"/>
  </g>
</svg>