<svg xmlns="http://www.w3.org/2000/svg" width="50" height="50" viewBox="0 0 50 50">
  <!-- Background Circle -->
  <circle cx="25" cy="25" r="24" fill="#FFFFFF" stroke="#8B0000" stroke-width="1"/>
  
  <!-- Payment Icon -->
  <g transform="translate(25, 25)">
    <!-- Credit Card -->
    <rect x="-15" y="-8" width="30" height="20" rx="2" ry="2" fill="#FFFFFF" stroke="#8B0000" stroke-width="1.5"/>
    
    <!-- Card Magnetic Strip -->
    <rect x="-15" y="-4" width="30" height="4" fill="#333333" opacity="0.7"/>
    
    <!-- Card Chip -->
    <rect x="-10" y="-1" width="6" height="6" rx="1" ry="1" fill="#DAA520" stroke="#8B0000" stroke-width="0.5"/>
    <path d="M-9,1 L-5,1 M-9,2 L-5,2 M-9,3 L-5,3" stroke="#8B0000" stroke-width="0.5" opacity="0.7"/>
    
    <!-- Card Number -->
    <path d="M0,4 L12,4 M0,6 L10,6 M0,8 L8,8" stroke="#8B0000" stroke-width="1" opacity="0.7"/>
    
    <!-- Rupee Symbol -->
    <g transform="translate(-5, 6) scale(0.8)">
      <path d="M-2,-3 L2,-3 M0,-3 L0,3 M-2,0 L2,0 M-2,3 L2,3" stroke="#8B0000" stroke-width="1.5" stroke-linecap="round"/>
    </g>
  </g>
  
  <!-- Secure Payment Symbol -->
  <g transform="translate(38, 12)">
    <!-- Lock -->
    <rect x="-3" y="0" width="6" height="5" rx="1" ry="1" fill="#006400"/>
    <path d="M-2,-2 C-2,-4 2,-4 2,-2 L2,0 L-2,0 Z" fill="none" stroke="#006400" stroke-width="1"/>
    <circle cx="0" cy="2.5" r="1" fill="#FFFFFF"/>
  </g>
  
  <!-- Decorative Elements -->
  <g>
    <!-- Gold Accent Border -->
    <circle cx="25" cy="25" r="24" fill="none" stroke="#DAA520" stroke-width="0.5" opacity="0.5"/>
    
    <!-- Corner Accents -->
    <circle cx="10" cy="10" r="1.5" fill="#DAA520" opacity="0.7"/>
    <circle cx="40" cy="40" r="1.5" fill="#DAA520" opacity="0.7"/>
    
    <!-- Spice Leaf Mini Decoration -->
    <g transform="translate(12, 38) scale(0.15)">
      <path d="M0,-20 Q10,-15 10,0 Q10,15 0,20 Q-10,15 -10,0 Q-10,-15 0,-20" fill="#006400" opacity="0.5"/>
      <path d="M0,-20 L0,20" stroke="#DAA520" stroke-width="2" opacity="0.5"/>
      <path d="M-8,-8 L8,8" stroke="#DAA520" stroke-width="2" opacity="0.5"/>
      <path d="M8,-8 L-8,8" stroke="#DAA520" stroke-width="2" opacity="0.5"/>
    </g>
  </g>
</svg>