<svg xmlns="http://www.w3.org/2000/svg" width="50" height="50" viewBox="0 0 50 50">
  <!-- Background Circle -->
  <circle cx="25" cy="25" r="24" fill="#FFFFFF" stroke="#8B0000" stroke-width="1"/>
  
  <!-- Search Icon -->
  <g transform="translate(25, 25)">
    <!-- Magnifying Glass -->
    <circle cx="-5" cy="-5" r="10" fill="none" stroke="#8B0000" stroke-width="2.5"/>
    <line x1="2" y1="2" x2="12" y2="12" stroke="#8B0000" stroke-width="3" stroke-linecap="round"/>
    
    <!-- Handle Decoration -->
    <circle cx="12" cy="12" r="1.5" fill="#DAA520"/>
    
    <!-- Glass Reflection -->
    <path d="M-12,-12 L-8,-8" stroke="#FFFFFF" stroke-width="1.5" stroke-linecap="round" opacity="0.7"/>
    <path d="M-10,-10 L-7,-7" stroke="#FFFFFF" stroke-width="1" stroke-linecap="round" opacity="0.5"/>
  </g>
  
  <!-- Spice Leaf Decoration -->
  <g transform="translate(10, 10) scale(0.2)">
    <path d="M0,-20 Q10,-15 10,0 Q10,15 0,20 Q-10,15 -10,0 Q-10,-15 0,-20" fill="#006400" opacity="0.7"/>
    <path d="M0,-20 L0,20" stroke="#DAA520" stroke-width="2" opacity="0.7"/>
    <path d="M-8,-8 L8,8" stroke="#DAA520" stroke-width="2" opacity="0.7"/>
    <path d="M8,-8 L-8,8" stroke="#DAA520" stroke-width="2" opacity="0.7"/>
  </g>
  
  <!-- Spice Sprinkles -->
  <circle cx="35" cy="10" r="1" fill="#DAA520" opacity="0.7"/>
  <circle cx="40" cy="15" r="1.5" fill="#DAA520" opacity="0.7"/>
  <circle cx="38" cy="12" r="0.8" fill="#DAA520" opacity="0.7"/>
  
  <circle cx="10" cy="40" r="1" fill="#DAA520" opacity="0.7"/>
  <circle cx="15" cy="35" r="1.5" fill="#DAA520" opacity="0.7"/>
  <circle cx="12" cy="38" r="0.8" fill="#DAA520" opacity="0.7"/>
  
  <!-- Gold Accent Border -->
  <circle cx="25" cy="25" r="24" fill="none" stroke="#DAA520" stroke-width="0.5" opacity="0.5"/>
</svg>