<svg xmlns="http://www.w3.org/2000/svg" width="80" height="80" viewBox="0 0 80 80">
  <!-- Background Circle with Animation -->
  <circle cx="40" cy="40" r="36" fill="#FFFFFF" stroke="#DAA520" stroke-width="2">
    <animate attributeName="r" values="36;38;36" dur="2s" repeatCount="indefinite"/>
  </circle>
  
  <!-- Warning Symbol -->
  <g transform="translate(40, 40) scale(1.2)">
    <!-- Warning Triangle -->
    <path d="M0,-20 L20,15 L-20,15 Z" fill="#DAA520" opacity="0.2" stroke="#DAA520" stroke-width="2"/>
    
    <!-- Exclamation Mark -->
    <line x1="0" y1="-10" x2="0" y2="5" stroke="#DAA520" stroke-width="4" stroke-linecap="round">
      <animate attributeName="stroke-dasharray" values="0,100;100,0" dur="0.5s" fill="freeze"/>
    </line>
    <circle cx="0" cy="10" r="2" fill="#DAA520">
      <animate attributeName="opacity" values="0;1" dur="0.5s" fill="freeze" begin="0.5s"/>
    </circle>
  </g>
  
  <!-- Decorative Elements -->
  <g>
    <!-- Maroon Accent Border -->
    <circle cx="40" cy="40" r="38" fill="none" stroke="#8B0000" stroke-width="1" opacity="0.5"/>
    
    <!-- Corner Accents -->
    <circle cx="15" cy="15" r="2" fill="#8B0000" opacity="0.7"/>
    <circle cx="65" cy="15" r="2" fill="#8B0000" opacity="0.7"/>
    <circle cx="15" cy="65" r="2" fill="#8B0000" opacity="0.7"/>
    <circle cx="65" cy="65" r="2" fill="#8B0000" opacity="0.7"/>
    
    <!-- Alert Pulses -->
    <g>
      <!-- Outer Pulse -->
      <circle cx="40" cy="40" r="42" fill="none" stroke="#DAA520" stroke-width="1" opacity="0">
        <animate attributeName="r" values="38;45;38" dur="3s" repeatCount="indefinite"/>
        <animate attributeName="opacity" values="0.5;0;0.5" dur="3s" repeatCount="indefinite"/>
      </circle>
    </g>
    
    <!-- Spice Leaf Decoration -->
    <g transform="translate(40, 15) scale(0.2)">
      <path d="M0,-20 Q10,-15 10,0 Q10,15 0,20 Q-10,15 -10,0 Q-10,-15 0,-20" fill="#006400" opacity="0.5"/>
      <path d="M0,-20 L0,20" stroke="#DAA520" stroke-width="2" opacity="0.5"/>
      <path d="M-8,-8 L8,8" stroke="#DAA520" stroke-width="2" opacity="0.5"/>
      <path d="M8,-8 L-8,8" stroke="#DAA520" stroke-width="2" opacity="0.5"/>
    </g>
  </g>
</svg>