<svg xmlns="http://www.w3.org/2000/svg" width="1200" height="100" viewBox="0 0 1200 100" preserveAspectRatio="none">
  <!-- Wave pattern for section divider -->
  <path d="M0,40 C200,100 400,0 600,40 C800,80 1000,0 1200,40 L1200,100 L0,100 Z" fill="#F5F5F5"/>
  
  <!-- Decorative elements -->
  <g fill="#8B0000" opacity="0.1">
    <circle cx="200" cy="60" r="5"/>
    <circle cx="600" cy="30" r="5"/>
    <circle cx="1000" cy="60" r="5"/>
  </g>
  
  <g fill="#DAA520" opacity="0.1">
    <circle cx="400" cy="70" r="3"/>
    <circle cx="800" cy="40" r="3"/>
    <circle cx="1100" cy="70" r="3"/>
  </g>
  
  <!-- Subtle pattern overlay -->
  <path d="M0,60 C100,40 200,80 300,60 C400,40 500,80 600,60 C700,40 800,80 900,60 C1000,40 1100,80 1200,60" fill="none" stroke="#DAA520" stroke-width="1" opacity="0.2" stroke-dasharray="5,5"/>
</svg>